<mxfile host="65bd71144e">
    <diagram name="Page-1" id="wyd4Irn9Vrg433uGzm8g">
        <mxGraphModel dx="1892" dy="1318" grid="1" gridSize="10" guides="1" tooltips="1" connect="1" arrows="1" fold="1" page="0" pageScale="1" pageWidth="850" pageHeight="1100" math="0" shadow="0">
            <root>
                <mxCell id="0"/>
                <mxCell id="1" parent="0"/>
                <mxCell id="LysjnZ2vViej8F_VOnhx-1" value="" style="rounded=1;whiteSpace=wrap;html=1;arcSize=3;" parent="1" vertex="1">
                    <mxGeometry x="-50" y="110" width="330" height="420" as="geometry"/>
                </mxCell>
                <mxCell id="LysjnZ2vViej8F_VOnhx-2" value="&lt;b&gt;PORT 1&lt;/b&gt;&lt;div&gt;DPHS&lt;/div&gt;&lt;div&gt;Cable&amp;nbsp;&lt;span style=&quot;background-color: initial;&quot;&gt;Internet&lt;/span&gt;&lt;/div&gt;" style="rounded=1;whiteSpace=wrap;html=1;" parent="1" vertex="1">
                    <mxGeometry x="160" y="150" width="120" height="50" as="geometry"/>
                </mxCell>
                <mxCell id="LysjnZ2vViej8F_VOnhx-3" value="&lt;b&gt;PORT 2&lt;/b&gt;&lt;div&gt;10.10.20.1&lt;/div&gt;&lt;div&gt;Sensors&lt;/div&gt;" style="rounded=1;whiteSpace=wrap;html=1;" parent="1" vertex="1">
                    <mxGeometry x="160" y="210" width="120" height="50" as="geometry"/>
                </mxCell>
                <mxCell id="LysjnZ2vViej8F_VOnhx-4" value="&lt;div&gt;&lt;b&gt;LANDKRABBA&lt;/b&gt;&lt;/div&gt;SEALOG 3" style="text;html=1;align=center;verticalAlign=middle;whiteSpace=wrap;rounded=0;" parent="1" vertex="1">
                    <mxGeometry y="130" width="130" height="30" as="geometry"/>
                </mxCell>
                <mxCell id="LysjnZ2vViej8F_VOnhx-6" value="&lt;b&gt;PORT 3&lt;/b&gt;&lt;div&gt;10.10.30.1&lt;/div&gt;&lt;div&gt;Sensors&lt;/div&gt;" style="rounded=1;whiteSpace=wrap;html=1;" parent="1" vertex="1">
                    <mxGeometry x="160" y="270" width="120" height="50" as="geometry"/>
                </mxCell>
                <mxCell id="LysjnZ2vViej8F_VOnhx-7" value="&lt;b&gt;PORT 4&lt;/b&gt;&lt;div&gt;&lt;span style=&quot;background-color: initial;&quot;&gt;10.10.42.1&lt;/span&gt;&lt;div&gt;Sensors&lt;/div&gt;&lt;/div&gt;" style="rounded=1;whiteSpace=wrap;html=1;" parent="1" vertex="1">
                    <mxGeometry x="160" y="330" width="120" height="50" as="geometry"/>
                </mxCell>
                <mxCell id="LysjnZ2vViej8F_VOnhx-8" value="&lt;b&gt;PORT 5&lt;/b&gt;&lt;div&gt;&lt;span style=&quot;background-color: initial;&quot;&gt;10.10.5&lt;/span&gt;&lt;span style=&quot;background-color: initial;&quot;&gt;0.1&lt;/span&gt;&lt;/div&gt;&lt;div&gt;&lt;div&gt;Sensors&lt;/div&gt;&lt;/div&gt;" style="rounded=1;whiteSpace=wrap;html=1;" parent="1" vertex="1">
                    <mxGeometry x="160" y="390" width="120" height="50" as="geometry"/>
                </mxCell>
                <mxCell id="LysjnZ2vViej8F_VOnhx-9" value="&lt;b&gt;PORT 6&lt;/b&gt;&lt;div&gt;&lt;span style=&quot;background-color: initial;&quot;&gt;10.10.60.1&lt;/span&gt;&lt;div&gt;Sensors&lt;/div&gt;&lt;/div&gt;" style="rounded=1;whiteSpace=wrap;html=1;" parent="1" vertex="1">
                    <mxGeometry x="160" y="450" width="120" height="50" as="geometry"/>
                </mxCell>
                <mxCell id="LysjnZ2vViej8F_VOnhx-11" value="&lt;div&gt;TLSense&lt;br&gt;&lt;/div&gt;M.2 120GB&lt;div&gt;SSD 1TB &lt;font color=&quot;#ff0000&quot;&gt;(Config needed)&lt;/font&gt;&lt;br&gt;&lt;div&gt;RAM 16GB&lt;/div&gt;&lt;div&gt;CPU&amp;nbsp;Intel i7-8550U 1.80GHz&lt;/div&gt;&lt;/div&gt;" style="text;html=1;align=left;verticalAlign=middle;whiteSpace=wrap;rounded=0;" parent="1" vertex="1">
                    <mxGeometry x="-30" y="180" width="190" height="250" as="geometry"/>
                </mxCell>
                <mxCell id="LysjnZ2vViej8F_VOnhx-12" value="" style="rounded=1;whiteSpace=wrap;html=1;arcSize=3;" parent="1" vertex="1">
                    <mxGeometry x="-60" y="700" width="330" height="410" as="geometry"/>
                </mxCell>
                <mxCell id="LysjnZ2vViej8F_VOnhx-47" style="edgeStyle=orthogonalEdgeStyle;rounded=0;orthogonalLoop=1;jettySize=auto;html=1;strokeWidth=1;endArrow=none;endFill=0;" parent="1" source="LysjnZ2vViej8F_VOnhx-50" target="LysjnZ2vViej8F_VOnhx-45" edge="1">
                    <mxGeometry relative="1" as="geometry">
                        <mxPoint x="450" y="780" as="sourcePoint"/>
                        <Array as="points">
                            <mxPoint x="610" y="760"/>
                            <mxPoint x="610" y="760"/>
                        </Array>
                    </mxGeometry>
                </mxCell>
                <mxCell id="IRRpGLI-742nRRNfNIlq-1" style="edgeStyle=orthogonalEdgeStyle;rounded=0;orthogonalLoop=1;jettySize=auto;html=1;exitX=1;exitY=0.25;exitDx=0;exitDy=0;curved=1;endArrow=none;endFill=0;dashed=1;dashPattern=8 8;" parent="1" source="LysjnZ2vViej8F_VOnhx-13" edge="1">
                    <mxGeometry relative="1" as="geometry">
                        <mxPoint x="330" y="690" as="targetPoint"/>
                    </mxGeometry>
                </mxCell>
                <mxCell id="IRRpGLI-742nRRNfNIlq-2" value="Internet" style="edgeLabel;html=1;align=center;verticalAlign=middle;resizable=0;points=[];fontStyle=1" parent="IRRpGLI-742nRRNfNIlq-1" vertex="1" connectable="0">
                    <mxGeometry x="0.9874" y="-2" relative="1" as="geometry">
                        <mxPoint as="offset"/>
                    </mxGeometry>
                </mxCell>
                <mxCell id="LysjnZ2vViej8F_VOnhx-13" value="&lt;b&gt;PORT 1&lt;/b&gt;&lt;div&gt;DPHS&lt;/div&gt;&lt;div&gt;Cable&amp;nbsp;&lt;span style=&quot;background-color: initial;&quot;&gt;Internet&lt;/span&gt;&lt;/div&gt;" style="rounded=1;whiteSpace=wrap;html=1;" parent="1" vertex="1">
                    <mxGeometry x="150" y="740" width="120" height="50" as="geometry"/>
                </mxCell>
                <mxCell id="LysjnZ2vViej8F_VOnhx-14" value="&lt;b&gt;PORT 2&lt;/b&gt;&lt;div&gt;10.10.20.1&lt;/div&gt;&lt;div&gt;Sensors&lt;/div&gt;" style="rounded=1;whiteSpace=wrap;html=1;" parent="1" vertex="1">
                    <mxGeometry x="150" y="800" width="120" height="50" as="geometry"/>
                </mxCell>
                <mxCell id="LysjnZ2vViej8F_VOnhx-15" value="&lt;div&gt;&lt;b&gt;LANDKRABBA&lt;/b&gt;&lt;/div&gt;SEALOG 4&lt;div&gt;&lt;br&gt;&lt;/div&gt;" style="text;html=1;align=center;verticalAlign=middle;whiteSpace=wrap;rounded=0;" parent="1" vertex="1">
                    <mxGeometry x="-10" y="720" width="130" height="40" as="geometry"/>
                </mxCell>
                <mxCell id="LysjnZ2vViej8F_VOnhx-16" value="&lt;b&gt;PORT 3&lt;/b&gt;&lt;div&gt;10.10.30.1&lt;/div&gt;&lt;div&gt;Sensors&lt;/div&gt;" style="rounded=1;whiteSpace=wrap;html=1;" parent="1" vertex="1">
                    <mxGeometry x="150" y="860" width="120" height="50" as="geometry"/>
                </mxCell>
                <mxCell id="LysjnZ2vViej8F_VOnhx-17" value="&lt;b&gt;PORT 4&lt;/b&gt;&lt;div&gt;&lt;span style=&quot;background-color: initial;&quot;&gt;10.10.40.1&lt;/span&gt;&lt;div&gt;Sensors&lt;/div&gt;&lt;/div&gt;" style="rounded=1;whiteSpace=wrap;html=1;" parent="1" vertex="1">
                    <mxGeometry x="150" y="920" width="120" height="50" as="geometry"/>
                </mxCell>
                <mxCell id="LysjnZ2vViej8F_VOnhx-18" value="&lt;b&gt;PORT 5&lt;/b&gt;&lt;div&gt;&lt;span style=&quot;background-color: initial;&quot;&gt;10.10.5&lt;/span&gt;&lt;span style=&quot;background-color: initial;&quot;&gt;0.1&lt;/span&gt;&lt;/div&gt;&lt;div&gt;&lt;div&gt;Sensors&lt;/div&gt;&lt;/div&gt;" style="rounded=1;whiteSpace=wrap;html=1;" parent="1" vertex="1">
                    <mxGeometry x="150" y="980" width="120" height="50" as="geometry"/>
                </mxCell>
                <mxCell id="LysjnZ2vViej8F_VOnhx-19" value="&lt;b&gt;PORT 6&lt;/b&gt;&lt;div&gt;&lt;span style=&quot;background-color: initial;&quot;&gt;10.10.60.1&lt;/span&gt;&lt;div&gt;Sensors&lt;/div&gt;&lt;/div&gt;" style="rounded=1;whiteSpace=wrap;html=1;" parent="1" vertex="1">
                    <mxGeometry x="150" y="1040" width="120" height="50" as="geometry"/>
                </mxCell>
                <mxCell id="LysjnZ2vViej8F_VOnhx-20" value="&lt;div&gt;TLSense&lt;/div&gt;M.2 120GB&lt;div&gt;SSD 1TB &lt;font color=&quot;#ff0000&quot;&gt;(Config needed)&lt;/font&gt;&lt;br&gt;&lt;div&gt;RAM 16GB&lt;/div&gt;&lt;div&gt;CPU&amp;nbsp;Intel i7-8550U 1.80GHz&lt;/div&gt;&lt;/div&gt;" style="text;html=1;align=left;verticalAlign=middle;whiteSpace=wrap;rounded=0;" parent="1" vertex="1">
                    <mxGeometry x="-40" y="790" width="190" height="250" as="geometry"/>
                </mxCell>
                <mxCell id="LysjnZ2vViej8F_VOnhx-21" value="" style="rounded=1;whiteSpace=wrap;html=1;arcSize=3;fillColor=#dae8fc;strokeColor=#6c8ebf;" parent="1" vertex="1">
                    <mxGeometry x="-50" y="1220" width="330" height="410" as="geometry"/>
                </mxCell>
                <mxCell id="LysjnZ2vViej8F_VOnhx-22" value="&lt;b&gt;PORT 1&lt;/b&gt;&lt;div&gt;DPHS&lt;/div&gt;&lt;div&gt;Cable&amp;nbsp;&lt;span style=&quot;background-color: initial;&quot;&gt;Internet&lt;/span&gt;&lt;/div&gt;" style="rounded=1;whiteSpace=wrap;html=1;" parent="1" vertex="1">
                    <mxGeometry x="160" y="1260" width="120" height="50" as="geometry"/>
                </mxCell>
                <mxCell id="LysjnZ2vViej8F_VOnhx-23" value="&lt;b&gt;PORT 2&lt;/b&gt;&lt;div&gt;10.10.20.1&lt;/div&gt;&lt;div&gt;Sensors&lt;/div&gt;" style="rounded=1;whiteSpace=wrap;html=1;" parent="1" vertex="1">
                    <mxGeometry x="160" y="1320" width="120" height="50" as="geometry"/>
                </mxCell>
                <mxCell id="LysjnZ2vViej8F_VOnhx-24" value="&lt;div&gt;&lt;b&gt;SH-LANDKRABBA&lt;/b&gt;&lt;/div&gt;SEALOG 5" style="text;html=1;align=center;verticalAlign=middle;whiteSpace=wrap;rounded=0;" parent="1" vertex="1">
                    <mxGeometry y="1240" width="130" height="30" as="geometry"/>
                </mxCell>
                <mxCell id="LysjnZ2vViej8F_VOnhx-25" value="&lt;b&gt;PORT 3&lt;/b&gt;&lt;div&gt;10.10.30.1&lt;/div&gt;&lt;div&gt;Sensors&lt;/div&gt;" style="rounded=1;whiteSpace=wrap;html=1;" parent="1" vertex="1">
                    <mxGeometry x="160" y="1380" width="120" height="50" as="geometry"/>
                </mxCell>
                <mxCell id="LysjnZ2vViej8F_VOnhx-26" value="&lt;b&gt;PORT 4&lt;/b&gt;&lt;div&gt;&lt;span style=&quot;background-color: initial;&quot;&gt;10.10.40.1&lt;/span&gt;&lt;div&gt;Sensors&lt;/div&gt;&lt;/div&gt;" style="rounded=1;whiteSpace=wrap;html=1;" parent="1" vertex="1">
                    <mxGeometry x="160" y="1440" width="120" height="50" as="geometry"/>
                </mxCell>
                <mxCell id="LysjnZ2vViej8F_VOnhx-27" value="&lt;b&gt;PORT 5&lt;/b&gt;&lt;div&gt;&lt;span style=&quot;background-color: initial;&quot;&gt;10.10.5&lt;/span&gt;&lt;span style=&quot;background-color: initial;&quot;&gt;0.1&lt;/span&gt;&lt;/div&gt;&lt;div&gt;&lt;div&gt;Sensors&lt;/div&gt;&lt;/div&gt;" style="rounded=1;whiteSpace=wrap;html=1;" parent="1" vertex="1">
                    <mxGeometry x="160" y="1500" width="120" height="50" as="geometry"/>
                </mxCell>
                <mxCell id="LysjnZ2vViej8F_VOnhx-28" value="&lt;b&gt;PORT 6&lt;/b&gt;&lt;div&gt;&lt;span style=&quot;background-color: initial;&quot;&gt;10.10.60.1&lt;/span&gt;&lt;div&gt;Sensors&lt;/div&gt;&lt;/div&gt;" style="rounded=1;whiteSpace=wrap;html=1;" parent="1" vertex="1">
                    <mxGeometry x="160" y="1560" width="120" height="50" as="geometry"/>
                </mxCell>
                <mxCell id="LysjnZ2vViej8F_VOnhx-29" value="&lt;div&gt;APU&lt;/div&gt;SSD 125GB&lt;div&gt;RAM 16GB&lt;/div&gt;&lt;div&gt;CPU&amp;nbsp;Intel i7-8550U 1.80GHz&lt;/div&gt;&lt;div&gt;&lt;br&gt;&lt;/div&gt;&lt;div&gt;SIM Card interna 4/5G&lt;/div&gt;" style="text;html=1;align=left;verticalAlign=middle;whiteSpace=wrap;rounded=0;" parent="1" vertex="1">
                    <mxGeometry x="-30" y="1310" width="190" height="250" as="geometry"/>
                </mxCell>
                <mxCell id="LysjnZ2vViej8F_VOnhx-31" value="" style="rounded=1;whiteSpace=wrap;html=1;arcSize=3;fillColor=#f8cecc;strokeColor=#b85450;" parent="1" vertex="1">
                    <mxGeometry x="-50" y="1720" width="330" height="460" as="geometry"/>
                </mxCell>
                <mxCell id="LysjnZ2vViej8F_VOnhx-32" value="&lt;b&gt;PORT 1&lt;/b&gt;&lt;div&gt;DPHS&lt;/div&gt;&lt;div&gt;Cable&amp;nbsp;&lt;span style=&quot;background-color: initial;&quot;&gt;Internet&lt;/span&gt;&lt;/div&gt;" style="rounded=1;whiteSpace=wrap;html=1;" parent="1" vertex="1">
                    <mxGeometry x="160" y="1760" width="120" height="50" as="geometry"/>
                </mxCell>
                <mxCell id="LysjnZ2vViej8F_VOnhx-33" value="&lt;b&gt;PORT 2&lt;/b&gt;&lt;div&gt;10.10.20.1&lt;/div&gt;&lt;div&gt;Sensors&lt;/div&gt;" style="rounded=1;whiteSpace=wrap;html=1;" parent="1" vertex="1">
                    <mxGeometry x="160" y="1820" width="120" height="50" as="geometry"/>
                </mxCell>
                <mxCell id="LysjnZ2vViej8F_VOnhx-34" value="&lt;div&gt;&lt;b&gt;MARTIN-PC&lt;/b&gt;&lt;/div&gt;&lt;div&gt;RUGGED&lt;/div&gt;" style="text;html=1;align=center;verticalAlign=middle;whiteSpace=wrap;rounded=0;" parent="1" vertex="1">
                    <mxGeometry y="1740" width="130" height="30" as="geometry"/>
                </mxCell>
                <mxCell id="LysjnZ2vViej8F_VOnhx-35" value="&lt;b&gt;PORT 3&lt;/b&gt;&lt;div&gt;10.10.30.1&lt;/div&gt;&lt;div&gt;Sensors&lt;/div&gt;" style="rounded=1;whiteSpace=wrap;html=1;" parent="1" vertex="1">
                    <mxGeometry x="160" y="1880" width="120" height="50" as="geometry"/>
                </mxCell>
                <mxCell id="LysjnZ2vViej8F_VOnhx-36" value="&lt;b&gt;PORT 4&lt;/b&gt;&lt;div&gt;&lt;span style=&quot;background-color: initial;&quot;&gt;10.10.40.1&lt;/span&gt;&lt;div&gt;Sensors&lt;/div&gt;&lt;/div&gt;" style="rounded=1;whiteSpace=wrap;html=1;" parent="1" vertex="1">
                    <mxGeometry x="160" y="1940" width="120" height="50" as="geometry"/>
                </mxCell>
                <mxCell id="LysjnZ2vViej8F_VOnhx-37" value="&lt;b&gt;PORT 5&lt;/b&gt;&lt;div&gt;&lt;span style=&quot;background-color: initial;&quot;&gt;10.10.5&lt;/span&gt;&lt;span style=&quot;background-color: initial;&quot;&gt;0.1&lt;/span&gt;&lt;/div&gt;&lt;div&gt;&lt;div&gt;Sensors&lt;/div&gt;&lt;/div&gt;" style="rounded=1;whiteSpace=wrap;html=1;" parent="1" vertex="1">
                    <mxGeometry x="160" y="2000" width="120" height="50" as="geometry"/>
                </mxCell>
                <mxCell id="LysjnZ2vViej8F_VOnhx-38" value="&lt;b&gt;PORT 6&lt;/b&gt;&lt;div&gt;&lt;span style=&quot;background-color: initial;&quot;&gt;10.10.60.1&lt;/span&gt;&lt;div&gt;Sensors&lt;/div&gt;&lt;/div&gt;" style="rounded=1;whiteSpace=wrap;html=1;" parent="1" vertex="1">
                    <mxGeometry x="160" y="2060" width="120" height="50" as="geometry"/>
                </mxCell>
                <mxCell id="LysjnZ2vViej8F_VOnhx-39" value="&lt;div&gt;APU&lt;/div&gt;SSD 125GB&lt;div&gt;RAM 16GB&lt;/div&gt;&lt;div&gt;CPU&amp;nbsp;Intel i7-8550U 1.80GHz&lt;/div&gt;" style="text;html=1;align=left;verticalAlign=middle;whiteSpace=wrap;rounded=0;" parent="1" vertex="1">
                    <mxGeometry x="-30" y="1810" width="190" height="250" as="geometry"/>
                </mxCell>
                <mxCell id="LysjnZ2vViej8F_VOnhx-40" value="" style="rounded=1;whiteSpace=wrap;html=1;arcSize=5;" parent="1" vertex="1">
                    <mxGeometry x="810" y="30" width="390" height="190" as="geometry"/>
                </mxCell>
                <mxCell id="LysjnZ2vViej8F_VOnhx-43" style="edgeStyle=orthogonalEdgeStyle;rounded=0;orthogonalLoop=1;jettySize=auto;html=1;endArrow=none;endFill=0;strokeWidth=1;" parent="1" source="LysjnZ2vViej8F_VOnhx-48" target="LysjnZ2vViej8F_VOnhx-2" edge="1">
                    <mxGeometry relative="1" as="geometry">
                        <Array as="points">
                            <mxPoint x="450" y="175"/>
                            <mxPoint x="450" y="175"/>
                        </Array>
                    </mxGeometry>
                </mxCell>
                <mxCell id="LysjnZ2vViej8F_VOnhx-41" value="&lt;b&gt;ROUTER&lt;/b&gt;&lt;div&gt;&lt;div&gt;RUTX12&lt;/div&gt;&lt;/div&gt;&lt;div&gt;10.10.10.2&lt;/div&gt;" style="rounded=1;whiteSpace=wrap;html=1;" parent="1" vertex="1">
                    <mxGeometry x="820" y="130" width="370" height="80" as="geometry"/>
                </mxCell>
                <mxCell id="LysjnZ2vViej8F_VOnhx-42" value="&lt;b&gt;ANTENN&lt;/b&gt;&amp;nbsp;&lt;div&gt;&lt;div&gt;4/5G, GNSS, WiFi&lt;/div&gt;&lt;div&gt;POYNTING&lt;/div&gt;&lt;/div&gt;" style="rounded=1;whiteSpace=wrap;html=1;" parent="1" vertex="1">
                    <mxGeometry x="820" y="45" width="370" height="75" as="geometry"/>
                </mxCell>
                <mxCell id="LysjnZ2vViej8F_VOnhx-44" value="" style="rounded=1;whiteSpace=wrap;html=1;arcSize=5;" parent="1" vertex="1">
                    <mxGeometry x="590" y="610" width="390" height="190" as="geometry"/>
                </mxCell>
                <mxCell id="LysjnZ2vViej8F_VOnhx-45" value="&lt;b&gt;ROUTER&lt;/b&gt;&lt;div&gt;&lt;div&gt;RUTX12&lt;/div&gt;&lt;/div&gt;&lt;div&gt;10.10.10.2&lt;/div&gt;" style="rounded=1;whiteSpace=wrap;html=1;" parent="1" vertex="1">
                    <mxGeometry x="600" y="710" width="370" height="80" as="geometry"/>
                </mxCell>
                <mxCell id="LysjnZ2vViej8F_VOnhx-46" value="&lt;b&gt;ANTENN&lt;/b&gt;&amp;nbsp;&lt;div&gt;4/5G, GNSS, WiFi&lt;/div&gt;&lt;div&gt;POYNTING&lt;/div&gt;" style="rounded=1;whiteSpace=wrap;html=1;" parent="1" vertex="1">
                    <mxGeometry x="600" y="625" width="370" height="75" as="geometry"/>
                </mxCell>
                <mxCell id="LysjnZ2vViej8F_VOnhx-49" style="edgeStyle=orthogonalEdgeStyle;rounded=0;orthogonalLoop=1;jettySize=auto;html=1;exitX=1;exitY=0.5;exitDx=0;exitDy=0;endArrow=none;endFill=0;" parent="1" source="LysjnZ2vViej8F_VOnhx-48" target="LysjnZ2vViej8F_VOnhx-40" edge="1">
                    <mxGeometry relative="1" as="geometry">
                        <Array as="points">
                            <mxPoint x="760" y="170"/>
                            <mxPoint x="760" y="170"/>
                        </Array>
                    </mxGeometry>
                </mxCell>
                <mxCell id="LysjnZ2vViej8F_VOnhx-48" value="Passive PoE Injector" style="rounded=1;whiteSpace=wrap;html=1;" parent="1" vertex="1">
                    <mxGeometry x="460" y="150" width="70" height="50" as="geometry"/>
                </mxCell>
                <mxCell id="LysjnZ2vViej8F_VOnhx-51" value="" style="edgeStyle=orthogonalEdgeStyle;rounded=0;orthogonalLoop=1;jettySize=auto;html=1;strokeWidth=1;endArrow=none;endFill=0;" parent="1" source="LysjnZ2vViej8F_VOnhx-13" target="LysjnZ2vViej8F_VOnhx-50" edge="1">
                    <mxGeometry relative="1" as="geometry">
                        <mxPoint x="280" y="785" as="sourcePoint"/>
                        <mxPoint x="820" y="785" as="targetPoint"/>
                        <Array as="points">
                            <mxPoint x="420" y="765"/>
                            <mxPoint x="420" y="765"/>
                        </Array>
                    </mxGeometry>
                </mxCell>
                <mxCell id="LysjnZ2vViej8F_VOnhx-50" value="&lt;b&gt;PoE Switch&lt;/b&gt;" style="rounded=1;whiteSpace=wrap;html=1;" parent="1" vertex="1">
                    <mxGeometry x="360" y="720" width="170" height="80" as="geometry"/>
                </mxCell>
                <mxCell id="IRRpGLI-742nRRNfNIlq-3" style="edgeStyle=orthogonalEdgeStyle;rounded=0;orthogonalLoop=1;jettySize=auto;html=1;exitX=1;exitY=0.25;exitDx=0;exitDy=0;curved=1;endArrow=none;endFill=0;dashed=1;dashPattern=8 8;" parent="1" edge="1">
                    <mxGeometry relative="1" as="geometry">
                        <mxPoint x="340" y="100" as="targetPoint"/>
                        <mxPoint x="280" y="163" as="sourcePoint"/>
                    </mxGeometry>
                </mxCell>
                <mxCell id="IRRpGLI-742nRRNfNIlq-4" value="Internet" style="edgeLabel;html=1;align=center;verticalAlign=middle;resizable=0;points=[];fontStyle=1" parent="IRRpGLI-742nRRNfNIlq-3" vertex="1" connectable="0">
                    <mxGeometry x="0.9874" y="-2" relative="1" as="geometry">
                        <mxPoint as="offset"/>
                    </mxGeometry>
                </mxCell>
                <mxCell id="IRRpGLI-742nRRNfNIlq-6" style="edgeStyle=orthogonalEdgeStyle;rounded=0;orthogonalLoop=1;jettySize=auto;html=1;exitX=0;exitY=0.5;exitDx=0;exitDy=0;endArrow=none;endFill=0;strokeWidth=1;" parent="1" source="IRRpGLI-742nRRNfNIlq-5" target="LysjnZ2vViej8F_VOnhx-7" edge="1">
                    <mxGeometry relative="1" as="geometry"/>
                </mxCell>
                <mxCell id="IRRpGLI-742nRRNfNIlq-5" value="&lt;b&gt;Lidar OS2&lt;/b&gt;&lt;div&gt;&lt;b&gt;&lt;font color=&quot;#ff0000&quot;&gt;10.10.42.3&amp;nbsp;&lt;/font&gt;&lt;/b&gt;&lt;/div&gt;&lt;div&gt;&lt;b&gt;&lt;font color=&quot;#ff0000&quot;&gt;MOVE TO 42.2&lt;/font&gt;&lt;/b&gt;&lt;/div&gt;" style="rounded=1;whiteSpace=wrap;html=1;" parent="1" vertex="1">
                    <mxGeometry x="470" y="315" width="170" height="80" as="geometry"/>
                </mxCell>
                <mxCell id="3" value="" style="ellipse;whiteSpace=wrap;html=1;aspect=fixed;" vertex="1" parent="1">
                    <mxGeometry x="410" y="450" width="80" height="80" as="geometry"/>
                </mxCell>
            </root>
        </mxGraphModel>
    </diagram>
</mxfile>